<svg width="50" height="50" viewBox="0 0 50 50" fill="none" xmlns="http://www.w3.org/2000/svg">
<path d="M38.4109 26.475C38.6912 26.1839 38.8477 25.7955 38.8477 25.3914C38.8477 24.9873 38.6912 24.599 38.4109 24.3078L30.4219 16.0063C29.4469 14.9922 27.7344 15.6828 27.7344 17.0891V21.875C27.7344 22.0906 27.5594 22.2656 27.3437 22.2656H12.1094C11.695 22.2656 11.2975 22.4303 11.0045 22.7233C10.7115 23.0163 10.5469 23.4137 10.5469 23.8281V26.9531C10.5469 27.3675 10.7115 27.765 11.0045 28.058C11.2975 28.351 11.695 28.5156 12.1094 28.5156H27.3437C27.4473 28.5156 27.5467 28.5568 27.62 28.63C27.6932 28.7033 27.7344 28.8027 27.7344 28.9063V33.6922C27.7344 35.0984 29.4469 35.7891 30.4219 34.775L38.4109 26.475Z" fill="black"/>
<path d="M40.625 1.5625C41.651 1.5625 42.6669 1.76458 43.6147 2.15719C44.5626 2.54981 45.4238 3.12527 46.1493 3.85073C47.6144 5.31586 48.4375 7.303 48.4375 9.375V40.625C48.4375 42.697 47.6144 44.6841 46.1493 46.1493C45.4238 46.8747 44.5626 47.4502 43.6147 47.8428C42.6669 48.2354 41.651 48.4375 40.625 48.4375H9.375C7.303 48.4375 5.31586 47.6144 3.85073 46.1493C2.3856 44.6841 1.5625 42.697 1.5625 40.625V9.375C1.5625 8.34905 1.76458 7.33314 2.15719 6.38529C2.54981 5.43743 3.12527 4.57619 3.85073 3.85073C4.57619 3.12527 5.43743 2.54981 6.38528 2.15719C7.33314 1.76458 8.34905 1.5625 9.375 1.5625H40.625ZM45.3125 9.375C45.3125 8.1318 44.8186 6.93951 43.9396 6.06044C43.0605 5.18136 41.8682 4.6875 40.625 4.6875H9.375C8.1318 4.6875 6.93951 5.18136 6.06044 6.06044C5.18136 6.93951 4.6875 8.1318 4.6875 9.375V40.625C4.6875 41.8682 5.18136 43.0605 6.06044 43.9396C6.93951 44.8186 8.1318 45.3125 9.375 45.3125H40.625C41.8682 45.3125 43.0605 44.8186 43.9396 43.9396C44.8186 43.0605 45.3125 41.8682 45.3125 40.625V9.375Z" fill="black"/>
</svg>
