<svg width="50" height="50" viewBox="0 0 50 50" fill="none" xmlns="http://www.w3.org/2000/svg">
<path d="M11.5891 26.475C11.3088 26.1839 11.1523 25.7955 11.1523 25.3914C11.1523 24.9873 11.3088 24.599 11.5891 24.3078L19.5781 16.0063C20.5531 14.9922 22.2656 15.6828 22.2656 17.0891V21.875C22.2656 22.0906 22.4406 22.2656 22.6563 22.2656H37.8906C38.305 22.2656 38.7025 22.4303 38.9955 22.7233C39.2885 23.0163 39.4531 23.4137 39.4531 23.8281V26.9531C39.4531 27.3675 39.2885 27.765 38.9955 28.058C38.7025 28.351 38.305 28.5156 37.8906 28.5156H22.6563C22.5527 28.5156 22.4533 28.5568 22.38 28.63C22.3068 28.7033 22.2656 28.8027 22.2656 28.9063V33.6922C22.2656 35.0984 20.5531 35.7891 19.5781 34.775L11.5891 26.475Z" fill="black"/>
<path d="M9.375 1.5625C8.34905 1.5625 7.33314 1.76458 6.38529 2.15719C5.43743 2.54981 4.57619 3.12527 3.85073 3.85073C2.3856 5.31586 1.5625 7.303 1.5625 9.375V40.625C1.5625 42.697 2.3856 44.6841 3.85073 46.1493C4.57619 46.8747 5.43743 47.4502 6.38529 47.8428C7.33314 48.2354 8.34905 48.4375 9.375 48.4375H40.625C42.697 48.4375 44.6841 47.6144 46.1493 46.1493C47.6144 44.6841 48.4375 42.697 48.4375 40.625V9.375C48.4375 8.34905 48.2354 7.33314 47.8428 6.38529C47.4502 5.43743 46.8747 4.57619 46.1493 3.85073C45.4238 3.12527 44.5626 2.54981 43.6147 2.15719C42.6669 1.76458 41.651 1.5625 40.625 1.5625H9.375ZM4.6875 9.375C4.6875 8.1318 5.18136 6.93951 6.06044 6.06044C6.93951 5.18136 8.1318 4.6875 9.375 4.6875H40.625C41.8682 4.6875 43.0605 5.18136 43.9396 6.06044C44.8186 6.93951 45.3125 8.1318 45.3125 9.375V40.625C45.3125 41.8682 44.8186 43.0605 43.9396 43.9396C43.0605 44.8186 41.8682 45.3125 40.625 45.3125H9.375C8.1318 45.3125 6.93951 44.8186 6.06044 43.9396C5.18136 43.0605 4.6875 41.8682 4.6875 40.625V9.375Z" fill="black"/>
</svg>
