<svg width="200" height="50" viewBox="0 0 200 50" fill="none" xmlns="http://www.w3.org/2000/svg">
<path d="M162.5 1.5625C166.604 1.5625 170.667 1.76458 174.459 2.15719C178.25 2.54981 181.695 3.12527 184.597 3.85073C190.458 5.31586 193.75 7.303 193.75 9.375V40.625C193.75 42.697 190.458 44.6841 184.597 46.1493C181.695 46.8747 178.25 47.4502 174.459 47.8428C170.667 48.2354 166.604 48.4375 162.5 48.4375H37.5C29.212 48.4375 21.2634 47.6144 15.4029 46.1493C9.5424 44.6841 6.25 42.697 6.25 40.625V9.375C6.25 8.34905 7.0583 7.33314 8.62876 6.38529C10.1992 5.43743 12.5011 4.57619 15.4029 3.85073C18.3047 3.12527 21.7497 2.54981 25.5411 2.15719C29.3326 1.76458 33.3962 1.5625 37.5 1.5625H162.5ZM181.25 9.375C181.25 8.1318 179.275 6.93951 175.758 6.06044C172.242 5.18136 167.473 4.6875 162.5 4.6875H37.5C32.5272 4.6875 27.7581 5.18136 24.2417 6.06044C20.7254 6.93951 18.75 8.1318 18.75 9.375V40.625C18.75 41.8682 20.7254 43.0605 24.2417 43.9396C27.7581 44.8186 32.5272 45.3125 37.5 45.3125H162.5C167.473 45.3125 172.242 44.8186 175.758 43.9396C179.275 43.0605 181.25 41.8682 181.25 40.625V9.375Z" fill="black"/>
</svg>
