<svg width="50" height="50" viewBox="0 0 50 50" fill="none" xmlns="http://www.w3.org/2000/svg">
<g clip-path="url(#clip0_3_6)">
<path d="M40.625 1.5625C41.651 1.5625 42.6669 1.76458 43.6147 2.15719C44.5626 2.54981 45.4238 3.12527 46.1493 3.85073C47.6144 5.31586 48.4375 7.303 48.4375 9.375V40.625C48.4375 42.697 47.6144 44.6841 46.1493 46.1493C45.4238 46.8747 44.5626 47.4502 43.6147 47.8428C42.6669 48.2354 41.651 48.4375 40.625 48.4375H9.375C7.303 48.4375 5.31586 47.6144 3.85073 46.1493C2.3856 44.6841 1.5625 42.697 1.5625 40.625V9.375C1.5625 8.34905 1.76458 7.33314 2.15719 6.38529C2.54981 5.43743 3.12527 4.57619 3.85073 3.85073C4.57619 3.12527 5.43743 2.54981 6.38528 2.15719C7.33314 1.76458 8.34905 1.5625 9.375 1.5625H40.625ZM45.3125 9.375C45.3125 8.1318 44.8186 6.93951 43.9396 6.06044C43.0605 5.18136 41.8682 4.6875 40.625 4.6875H9.375C8.1318 4.6875 6.93951 5.18136 6.06044 6.06044C5.18136 6.93951 4.6875 8.1318 4.6875 9.375V40.625C4.6875 41.8682 5.18136 43.0605 6.06044 43.9396C6.93951 44.8186 8.1318 45.3125 9.375 45.3125H40.625C41.8682 45.3125 43.0605 44.8186 43.9396 43.9396C44.8186 43.0605 45.3125 41.8682 45.3125 40.625V9.375Z" fill="black"/>
<path d="M40.625 1.5625C41.651 1.5625 42.6669 1.76458 43.6147 2.15719C44.5626 2.54981 45.4238 3.12527 46.1493 3.85073C47.6144 5.31586 48.4375 7.303 48.4375 9.375V40.625C48.4375 42.697 47.6144 44.6841 46.1493 46.1493C45.4238 46.8747 44.5626 47.4502 43.6147 47.8428C42.6669 48.2354 41.651 48.4375 40.625 48.4375H9.375C7.303 48.4375 5.31586 47.6144 3.85073 46.1493C2.3856 44.6841 1.5625 42.697 1.5625 40.625V9.375C1.5625 8.34905 1.76458 7.33314 2.15719 6.38529C2.54981 5.43743 3.12527 4.57619 3.85073 3.85073C4.57619 3.12527 5.43743 2.54981 6.38528 2.15719C7.33314 1.76458 8.34905 1.5625 9.375 1.5625H40.625ZM45.3125 9.375C45.3125 8.1318 44.8186 6.93951 43.9396 6.06044C43.0605 5.18136 41.8682 4.6875 40.625 4.6875H9.375C8.1318 4.6875 6.93951 5.18136 6.06044 6.06044C5.18136 6.93951 4.6875 8.1318 4.6875 9.375V40.625C4.6875 41.8682 5.18136 43.0605 6.06044 43.9396C6.93951 44.8186 8.1318 45.3125 9.375 45.3125H40.625C41.8682 45.3125 43.0605 44.8186 43.9396 43.9396C44.8186 43.0605 45.3125 41.8682 45.3125 40.625V9.375Z" fill="black"/>
<path d="M14 20H20V22H16V24H20V26H16V28H20V30H14V20ZM24 20H28V22H24V24H26C26.5304 24 27.0391 24.2107 27.4142 24.5858C27.7893 24.9609 28 25.4696 28 26V28C28 29.11 27.11 30 26 30H22V28H26V26H24C23.4696 26 22.9609 25.7893 22.5858 25.4142C22.2107 25.0391 22 24.5304 22 24V22C22 20.9 22.9 20 24 20ZM32 20H34C34.5304 20 35.0391 20.2107 35.4142 20.5858C35.7893 20.9609 36 21.4696 36 22V23H34V22H32V28H34V27H36V28C36 29.11 35.11 30 34 30H32C31.4696 30 30.9609 29.7893 30.5858 29.4142C30.2107 29.0391 30 28.5304 30 28V22C30 20.9 30.9 20 32 20Z" fill="black"/>
</g>
<defs>
<clipPath id="clip0_3_6">
<rect width="50" height="50" fill="white" transform="matrix(-1 0 0 1 50 0)"/>
</clipPath>
</defs>
</svg>
